<?xml version="1.0" encoding="utf-8"?>
<!-- Generator: Adobe Illustrator 14.0.0, SVG Export Plug-In . SVG Version: 6.00 Build 43363)  -->
<!DOCTYPE svg PUBLIC "-//W3C//DTD SVG 1.1//EN" "http://www.w3.org/Graphics/SVG/1.1/DTD/svg11.dtd">
<svg version="1.1" id="Layer_1" xmlns="http://www.w3.org/2000/svg" xmlns:xlink="http://www.w3.org/1999/xlink" x="0px" y="0px"
	 width="216.478px" height="227.841px" viewBox="0 0 216.478 227.841" enable-background="new 0 0 216.478 227.841"
	 xml:space="preserve">
<path fill="#010101" d="M210.094,158.253l-67.744,63.412c-1.033,0.623-1.963,0.623-2.789,0l-4.943-5.259
	c-0.826-1.236-0.725-2.051,0.303-2.475l1.238-1.229L22.316,90.503l-1.541,1.238c-0.826,0.413-1.551,0.413-2.166,0l-4.953-5.569
	c-0.412-0.412-0.613-0.814-0.613-1.235c0-0.416,0.201-0.818,0.613-1.242l21.65-20.097l-4.33-5.269c-1.025-0.401-1.025-0.925,0-1.539
	c0-0.203,0.211-0.514,0.625-0.926c0.199-0.415,0.463-0.678,0.773-0.776c0.303-0.103,0.666-0.362,1.08-0.776l-3.707-3.716
	c-0.424,0-1.238,0.061-2.477,0.163c-1.238,0.099-1.963,0.152-2.166,0.152l-2.477,1.238h-0.313c-1.238,0.413-2.729,0.463-4.482,0.151
	c-1.752-0.304-3.252-1.18-4.49-2.629c-0.414-0.413-0.725-0.876-0.926-1.389c-0.201-0.513-0.516-0.976-0.926-1.391
	c-0.828-2.677-0.572-4.843,0.775-6.494c1.338-1.652,2.939-2.991,4.793-4.03l0.311-0.311l-0.311-0.302
	c-0.414-0.826-0.414-1.44,0-1.865L44.279,8.524c0.211-0.205,0.623-0.304,1.24-0.304c2.473,1.026,4.641,1.963,6.494,2.778
	c1.65,0.826,3.102,1.552,4.33,2.166c1.238,0.623,1.961,0.927,2.164,0.927c0.211,0,1.34,0.111,3.404,0.312
	c2.063,0.209,3.201,0.313,3.404,0.313c1.65-0.201,3.402-0.413,5.264-0.625c1.643-0.201,3.395-0.403,5.26-0.616
	c1.85-0.2,3.816-0.514,5.871-0.925c4.738-0.625,10.107-1.339,16.09-2.164h0.313c0.201,0,0.301,0.048,0.301,0.149
	c0,0.112,0.104,0.15,0.314,0.15l84.145,88.478c0.201,0.624,0.201,1.138,0,1.549l-4.332,5.258c-0.211,0-0.361,0.049-0.461,0.161
	c-0.111,0.098-0.262,0.15-0.465,0.15c-0.623,0-1.033-0.102-1.238-0.312l-40.834-43.313c-5.154-5.357-10.209-10.666-15.166-15.932
	c-4.943-5.256-9.383-9.898-13.291-13.917c-3.924-4.018-8.357-8.608-13.303-13.764c-0.424,0-1.553,0.1-3.404,0.313
	c-1.861,0.2-3.93,0.513-6.191,0.925l4.953,5.257c0.412,1.239,0.412,2.065,0,2.478l-0.623,0.614l113.84,122.202l0.625-0.624
	c0.613-0.417,1.439-0.417,2.469,0l4.951,5.565C211.23,156.602,211.127,157.428,210.094,158.253z M30.049,48.431l-7.42-7.735
	c-0.617,0-1.037-0.203-1.238-0.614l-1.855-1.852l-1.863,0.613c-0.822,0.413-1.852,1.188-3.09,2.314
	c-1.238,1.139-1.338,2.84-0.303,5.107c0,0.624,0.203,1.137,0.615,1.55c1.027,1.039,2.316,1.651,3.865,1.853
	c1.551,0.212,2.529,0.312,2.943,0.312l1.236-0.625l1.238-0.614h0.301L30.049,48.431z M16.748,41.623
	c0.623-0.815,1.439-1.178,2.477-1.078c1.029,0.1,1.951,0.462,2.787,1.078c0.406,0.835,0.617,1.763,0.617,2.789
	c0,1.04-0.313,1.965-0.926,2.778c-0.828,0.626-1.754,0.888-2.793,0.776c-1.023-0.1-1.85-0.462-2.465-1.077
	c-0.836-0.826-1.199-1.753-1.086-2.788C15.459,43.073,15.922,42.248,16.748,41.623z M20.463,45.962
	c1.027-1.037,1.129-2.063,0.313-3.102c-0.826-1.237-1.965-1.339-3.404-0.3c-0.623,1.026-0.623,2.062,0,3.089
	C18.609,47.303,19.637,47.402,20.463,45.962z M21.078,86.797c1.438-1.44,3.867-3.767,7.27-6.968
	c3.404-3.192,7.322-6.849,11.762-10.977c4.432-4.128,9.012-8.398,13.766-12.839c4.744-4.429,9.223-8.61,13.457-12.528
	c4.225-3.916,7.932-7.32,11.135-10.21c3.191-2.892,5.307-4.844,6.344-5.879l0.615-0.617c-0.412-0.413-0.826-0.875-1.238-1.389
	c-0.414-0.514-0.928-0.979-1.543-1.401c-0.422,0.422-1.498,1.499-3.252,3.254c-1.752,1.751-3.553,3.454-5.418,5.105
	c-2.266,2.264-4.744,4.542-7.422,6.809l-2.475,2.466C55.83,49.467,48.307,56.476,41.5,62.659c-2.891,2.687-5.721,5.317-8.51,7.895
	c-2.779,2.579-5.307,4.894-7.584,6.959c-2.262,2.064-4.168,3.766-5.721,5.105c-1.539,1.339-2.426,2.115-2.625,2.318
	c0.412,0.623,0.873,1.138,1.389,1.549c0.514,0.413,0.977,0.926,1.389,1.54L21.078,86.797z M45.215,10.999
	c-0.209,0.213-1.602,1.501-4.178,3.869c-2.59,2.375-5.367,4.953-8.359,7.732c-2.988,2.791-5.771,5.418-8.35,7.895
	c-2.576,2.467-4.074,3.919-4.49,4.329c0.416,0.616,1.24,1.542,2.479,2.78c0.414-0.41,1.441-1.238,3.09-2.477
	c1.652-1.239,3.406-2.678,5.268-4.329c2.266-1.853,4.633-3.917,7.109-6.184c0.414-0.413,0.928-0.413,1.551,0l5.568,2.478
	c0.414-1.238,1.027-2.167,1.854-2.788c-0.826-1.441-0.613-2.78,0.625-4.02c0.402-0.412,1.076-0.665,2.002-0.775
	c0.93-0.1,1.604,0.05,2.016,0.464c2.881-1.653,5.82-2.418,8.813-2.315c2.99,0.1,5.305,1.289,6.967,3.554l0.613,0.612l2.164-1.54
	l24.131-3.716h0.926c15.055,15.881,28.568,30.121,40.531,42.688c5.145,5.366,10.152,10.633,15.004,15.778
	c4.844,5.158,9.225,9.798,13.143,13.929c3.916,4.126,7.119,7.473,9.598,10.048c2.465,2.578,3.805,3.977,4.018,4.18
	c0.613-0.413,1.188-0.927,1.701-1.55c0.516-0.616,0.975-1.128,1.389-1.54c-0.201-0.213-2.426-2.529-6.643-6.971
	c-4.23-4.431-9.389-9.837-15.471-16.231c-6.094-6.397-12.637-13.302-19.646-20.733c-7.02-7.424-13.566-14.331-19.646-20.726
	c-6.082-6.393-11.188-11.7-15.307-15.931c-4.131-4.23-6.193-6.445-6.193-6.657c-0.412,0.212-2.266,0.526-5.566,0.936
	c-3.305,0.415-6.908,0.825-10.826,1.241c-4.543,0.613-9.697,1.339-15.467,2.165h-0.313l-7.424-0.625h-0.311
	c-2.268-1.026-4.229-1.955-5.871-2.78c-1.66-0.623-3.051-1.187-4.182-1.701C46.393,11.572,45.617,11.211,45.215,10.999z
	 M23.244,40.083c1.037,0.826,2.527,2.265,4.488,4.329c1.957,2.065,3.041,3.305,3.244,3.715c0.211-0.208,0.775-0.776,1.701-1.701
	c0.938-0.938,2.014-1.914,3.252-2.941c1.238-1.237,2.781-2.677,4.643-4.328l4.947,5.254l2.473-2.478
	c-0.209-0.2-0.41-0.353-0.611-0.463c-0.211-0.1-0.525-0.351-0.938-0.775c-1.438-1.439-2.314-3.195-2.629-5.257
	c-0.301-2.054-0.148-4.12,0.465-6.184c-0.613-0.209-1.602-0.574-2.93-1.087c-1.352-0.512-2.227-0.875-2.639-1.077
	c-0.203,0.201-1.027,0.874-2.467,2.002c-1.451,1.14-2.992,2.43-4.643,3.867c-1.65,1.452-3.303,2.839-4.955,4.18
	C24.994,38.48,23.867,39.458,23.244,40.083z M135.383,206.82c1.965,2.066,3.041,3.205,3.252,3.404l61.256-57.227
	c-0.211-0.213-2.014-2.115-5.416-5.731c-3.404-3.606-7.734-8.296-12.99-14.065c-5.268-5.782-11.25-12.228-17.947-19.336
	c-6.705-7.12-13.564-14.438-20.572-21.974c-7.01-7.521-13.877-14.839-20.572-21.96c-6.707-7.112-12.678-13.555-17.945-19.337
	c-5.256-5.77-9.586-10.413-12.99-13.917c-3.404-3.503-5.205-5.458-5.408-5.88L24.793,88.025c0.201,0.423,2.779,3.254,7.732,8.508
	c4.957,5.259,11.088,11.864,18.41,19.8c7.32,7.942,15.416,16.657,24.279,26.14c8.871,9.485,17.33,18.561,25.367,27.231l33.41-30.938
	l0.625-0.624l26.908,28.771l-33.717,31.551C130.902,201.979,133.43,204.756,135.383,206.82z M36.244,53.385l8.658-8.359
	c-0.412-0.404-1.139-1.179-2.166-2.318c-1.035-1.126-1.75-1.8-2.164-2.012c-0.211,0-0.672,0.362-1.398,1.088
	c-0.727,0.725-1.592,1.539-2.631,2.476c-1.025,0.927-2.002,1.854-2.928,2.779c-0.938,0.926-1.703,1.601-2.328,2.016L36.244,53.385z
	 M35.156,59.565c0.725,0.827,1.387,1.553,2.012,2.167l15.469-14.543c-0.623-0.612-1.389-1.338-2.324-2.163
	c-0.93-0.814-1.492-1.439-1.703-1.854c-0.203,0.213-0.826,0.825-1.854,1.854c-1.037,1.037-2.215,2.163-3.555,3.405
	c-1.348,1.237-2.629,2.425-3.867,3.563c-1.238,1.128-2.166,2.004-2.791,2.628c0,0.414-0.199,0.614-0.613,0.614l-0.926,0.929
	l-1.549,1.551C33.867,58.128,34.43,58.751,35.156,59.565z M47.381,40.083c2.053,2.265,4.73,3.353,8.035,3.241
	c3.303-0.098,6.395-1.488,9.283-4.166c0.816-0.626,1.443-1.343,1.854-2.168c0.414-0.824,0.826-1.549,1.238-2.165l1.24-2.475v-0.313
	c1.027-4.119,0.313-7.422-2.166-9.899c-1.854-2.054-4.129-3.242-6.807-3.554c-2.68-0.311-5.258,0.364-7.73,2.005l0.621,0.624
	c2.266-1.239,4.633-1.754,7.109-1.551c2.477,0.212,4.529,1.136,6.184,2.79c1.863,2.266,2.637,4.946,2.328,8.044
	c-0.314,3.092-1.705,5.871-4.18,8.349c-2.68,2.276-5.621,3.504-8.814,3.717c-3.203,0.2-5.828-0.826-7.893-3.103
	c-1.441-1.643-2.164-3.807-2.164-6.496c0-2.677,0.723-5.145,2.164-7.421c0-0.202-0.102-0.413-0.303-0.616
	c-1.861,2.681-2.789,5.359-2.789,8.037C44.592,35.65,45.52,38.017,47.381,40.083z M54.801,33.275c-0.625,0.21-1.137,0.21-1.551,0
	l-6.494-2.78c-0.826,3.092-0.211,5.871,1.854,8.349c1.863,1.853,4.23,2.738,7.119,2.627c2.891-0.1,5.457-1.29,7.734-3.554
	c3.916-3.917,5.055-8.146,3.402-12.688L54.801,33.275z M51.398,24.614c0.826-0.826,1.027-1.65,0.615-2.477
	c0-0.203-0.201-0.514-0.615-0.925l-0.314-0.312c-0.822-1.239-1.852-1.239-3.092,0c-0.822,1.237-0.924,2.273-0.309,3.09v0.625
	c0.201,0.202,0.512,0.311,0.926,0.311C49.646,25.338,50.572,25.229,51.398,24.614z M53.25,22.137c0,1.45-0.41,2.477-1.236,3.093
	c-1.027,1.036-2.168,1.348-3.404,0.924c-0.203,0.424-0.414,0.776-0.617,1.09c-0.209,0.313-0.309,0.573-0.309,0.775
	c0.412,0.413,1.438,0.927,3.092,1.54c1.65,0.625,2.678,1.038,3.1,1.239c0.201,0,0.816-0.351,1.854-1.077
	c1.027-0.727,2.164-1.5,3.404-2.325c1.236-0.819,2.477-1.593,3.715-2.318c1.23-0.726,2.055-1.29,2.469-1.702v-0.313
	c-1.652-1.642-3.557-2.577-5.721-2.779C57.43,20.083,55.314,20.698,53.25,22.137z M49.846,43.173l3.404,3.716l2.793-2.788
	C53.766,44.512,51.711,44.212,49.846,43.173z M69.344,23.689c1.025,2.265,1.236,4.63,0.611,7.108l5.57-4.944l-5.57-2.791
	c0,0.213-0.098,0.313-0.309,0.313C69.445,23.375,69.344,23.487,69.344,23.689z M77.379,24.304l3.717-3.404
	c-1.439,0.411-2.838,0.724-4.178,0.924c-1.342,0.212-2.531,0.313-3.557,0.313L77.379,24.304z M101.82,170.629
	c4.742,5.157,9.232,10.051,13.461,14.693c4.221,4.642,7.988,8.711,11.291,12.215c1.236-1.238,3.604-3.444,7.109-6.645
	c3.502-3.192,7.117-6.547,10.834-10.063c3.707-3.504,7.061-6.646,10.051-9.436c2.99-2.779,4.592-4.271,4.791-4.48
	c-0.199-0.201-1.539-1.65-4.018-4.33c-2.477-2.678-5.215-5.67-8.195-8.971c-2.992-3.293-5.828-6.285-8.51-8.975
	c-2.68-2.676-4.127-4.221-4.328-4.641c-0.213,0.42-1.814,2.012-4.795,4.803c-2.99,2.778-6.346,5.93-10.061,9.434
	c-3.705,3.506-7.27,6.859-10.676,10.052C105.383,167.488,103.057,169.595,101.82,170.629z M141.111,217.959
	c0.414-0.414,2.215-2.115,5.41-5.105c3.203-2.99,7.168-6.697,11.912-11.135c4.742-4.434,9.848-9.225,15.318-14.383
	c5.457-5.155,10.561-9.947,15.305-14.391c4.742-4.43,8.77-8.146,12.063-11.138c3.303-2.978,5.156-4.683,5.57-5.103l-2.779-2.781
	l-0.314,0.613c-1.035,0.828-3.092,2.739-6.184,5.73c-3.09,2.99-6.807,6.445-11.135,10.361c-4.33,3.918-8.924,8.147-13.768,12.678
	c-4.854,4.546-9.484,8.873-13.926,12.992c-4.432,4.129-8.348,7.795-11.752,10.986c-3.402,3.201-5.83,5.518-7.271,6.959
	c-0.211,0.21-0.412,0.363-0.615,0.461c-0.209,0.111-0.422,0.264-0.621,0.465c0.621,0.424,1.137,0.887,1.549,1.4
	C140.287,217.084,140.688,217.545,141.111,217.959z"/>
</svg>
